<svg width="17" height="19" viewBox="0 0 17 19" fill="none" xmlns="http://www.w3.org/2000/svg">
<path fill-rule="evenodd" clip-rule="evenodd" d="M7.70834 1.58333C7.27111 1.58333 6.91668 1.93778 6.91668 2.375V3.16667H10.0833V2.375C10.0833 1.93778 9.72892 1.58333 9.29168 1.58333H7.70834ZM11.6667 3.16667V2.375C11.6667 1.06333 10.6034 0 9.29168 0H7.70834C6.39667 0 5.33334 1.06333 5.33334 2.375V3.16667H1.37501C0.937789 3.16667 0.583344 3.52111 0.583344 3.95833C0.583344 4.39556 0.937789 4.75 1.37501 4.75H1.4581L2.80668 16.8873C2.94033 18.0901 3.95698 19 5.16717 19H11.8328C13.0431 19 14.0597 18.0901 14.1934 16.8873L15.5419 4.75H15.625C16.0622 4.75 16.4167 4.39556 16.4167 3.95833C16.4167 3.52111 16.0622 3.16667 15.625 3.16667H11.6667ZM13.9488 4.75H3.05117L4.38034 16.7124C4.42488 17.1134 4.76377 17.4167 5.16717 17.4167H11.8328C12.2363 17.4167 12.5751 17.1134 12.6197 16.7124L13.9488 4.75ZM6.91668 7.125C7.35392 7.125 7.70834 7.47944 7.70834 7.91667V14.25C7.70834 14.6872 7.35392 15.0417 6.91668 15.0417C6.47946 15.0417 6.12501 14.6872 6.12501 14.25V7.91667C6.12501 7.47944 6.47946 7.125 6.91668 7.125ZM10.0833 7.125C10.5206 7.125 10.875 7.47944 10.875 7.91667V14.25C10.875 14.6872 10.5206 15.0417 10.0833 15.0417C9.64611 15.0417 9.29168 14.6872 9.29168 14.25V7.91667C9.29168 7.47944 9.64611 7.125 10.0833 7.125Z" fill="#9F9F9F"/>
</svg>
